# xmcd CD database file
#
# Track frame offsets:
#	150
#	23570
#	42982
#	63850
#	82495
#	100062
#	113570
#	133647
#	151245
#	169872
#	190817
#
# Disc length: 2777 seconds
#
# Revision: 1
# Processed by: cddbd v1.5.2PL0 Copyright (c) Steve Scherf et al.
# Submitted via: CDex 1.74
#
DISCID=870ad70b
DTITLE=Rita Coolidge - Fire Me Back-1990
DYEAR=1990
DGENRE=country rock
TTITLE0=I'm Still Learning About Love
TTITLE1=I Stand In Wonder
TTITLE2=Tattler
TTITLE3=Bed Of Roses
TTITLE4=Someday
TTITLE5=Hello Blues
TTITLE6=Fascination
TTITLE7=That's Just The Way Love Is
TTITLE8=Old Fashioned Heart
TTITLE9=Fire Me Back
TTITLE10=I Would Not Change A Thing
EXTD=AAD-ATTIC-Metronome-1990 YEAR: 1990
EXTT0=
EXTT1=
EXTT2=
EXTT3=
EXTT4=
EXTT5=
EXTT6=
EXTT7=
EXTT8=
EXTT9=
EXTT10=
PLAYORDER=
